<?xml version="1.0" encoding="utf-8"?>
<!-- Generator: Adobe Illustrator 19.0.0, SVG Export Plug-In . SVG Version: 6.00 Build 0)  -->
<svg version="1.1"
	 id="Layer_1" xmlns:dc="http://purl.org/dc/elements/1.1/" xmlns:cc="http://creativecommons.org/ns#" xmlns:svg="http://www.w3.org/2000/svg" xmlns:sodipodi="http://sodipodi.sourceforge.net/DTD/sodipodi-0.dtd" xmlns:rdf="http://www.w3.org/1999/02/22-rdf-syntax-ns#" xmlns:inkscape="http://www.inkscape.org/namespaces/inkscape"
	 xmlns="http://www.w3.org/2000/svg" xmlns:xlink="http://www.w3.org/1999/xlink" x="0px" y="0px" viewBox="-137 138 25 25"
	 style="enable-background:new -137 138 25 25;" xml:space="preserve">
<g transform="translate(0,-952.36218)">
	<path d="M-131.3,1094.4c-0.4,0-0.9,0.1-1.2,0.5c-0.7,0.7-0.7,1.7,0,2.4l5.6,5.6l-5.6,5.6c-0.7,0.7-0.7,1.7,0,2.4
		c0.7,0.7,1.7,0.7,2.4,0l5.6-5.6l5.6,5.6c0.7,0.7,1.7,0.7,2.4,0c0.7-0.7,0.7-1.7,0-2.4l-5.6-5.6l5.6-5.6c0.7-0.7,0.7-1.7,0-2.4
		c-0.7-0.7-1.7-0.7-2.4,0l-5.6,5.6l-5.6-5.6C-130.5,1094.5-130.9,1094.4-131.3,1094.4L-131.3,1094.4z"/>
</g>
</svg>
