<?xml version="1.0" encoding="utf-8"?>
<!-- Generator: Adobe Illustrator 19.0.0, SVG Export Plug-In . SVG Version: 6.00 Build 0)  -->
<svg version="1.1" id="Layer_1" xmlns="http://www.w3.org/2000/svg" xmlns:xlink="http://www.w3.org/1999/xlink" x="0px" y="0px"
	 viewBox="-131 181 64 64" style="enable-background:new -131 181 64 64;" xml:space="preserve">
<style type="text/css">
	.st0{fill:#16A085;}
</style>
<polygon class="st0" points="-83,222.9 -83,188 -115,188 -115,222.9 -99,235 "/>
<path d="M-71.4,181c-0.8,0-1.4,0.4-1.9,0.9h-51.5c-0.4-0.6-1.1-0.9-1.9-0.9c-1.3,0-2.4,1.1-2.4,2.4c0,1.3,1.1,2.4,2.4,2.4
	c0.8,0,1.4-0.4,1.9-0.9h3.4v42.3L-99,244l22.4-16.7V185h3.4c0.4,0.5,1.1,0.9,1.9,0.9c1.3,0,2.4-1.1,2.4-2.4
	C-68.9,182.1-70,181-71.4,181z M-79.6,225.1l-19.4,15l-19.4-15V185h38.7V225.1z"/>
</svg>
