<?xml version="1.0" encoding="utf-8"?>
<!-- Generator: Adobe Illustrator 19.0.0, SVG Export Plug-In . SVG Version: 6.00 Build 0)  -->
<svg version="1.1"
	 id="Layer_1" xmlns:dc="http://purl.org/dc/elements/1.1/" xmlns:cc="http://creativecommons.org/ns#" xmlns:svg="http://www.w3.org/2000/svg" xmlns:sodipodi="http://sodipodi.sourceforge.net/DTD/sodipodi-0.dtd" xmlns:rdf="http://www.w3.org/1999/02/22-rdf-syntax-ns#" xmlns:inkscape="http://www.inkscape.org/namespaces/inkscape"
	 xmlns="http://www.w3.org/2000/svg" xmlns:xlink="http://www.w3.org/1999/xlink" x="0px" y="0px" viewBox="-137 138 25 25"
	 style="enable-background:new -137 138 25 25;" xml:space="preserve">
<g>
	<path d="M-114.6,162.6l-7.5-7.5c-0.6-0.6-0.6-1.6,0-2.1l0,0c0.6-0.6,1.6-0.6,2.1,0l7.5,7.5c0.6,0.6,0.6,1.6,0,2.1l0,0
		C-113,163.1-114,163.1-114.6,162.6z"/>
	<path d="M-134.1,140.9c-3.9,3.9-3.9,10.2,0,14.1s10.2,3.9,14.1,0s3.9-10.2,0-14.1S-130.2,137-134.1,140.9z M-122.1,153
		c-2.7,2.7-7.1,2.7-9.8,0s-2.7-7.1,0-9.8s7.1-2.7,9.8,0C-119.4,145.9-119.4,150.2-122.1,153z"/>
</g>
</svg>
