<?xml version="1.0" encoding="utf-8"?>
<!-- Generator: Adobe Illustrator 19.0.0, SVG Export Plug-In . SVG Version: 6.00 Build 0)  -->
<svg version="1.1"
	 id="Layer_1" xmlns:dc="http://purl.org/dc/elements/1.1/" xmlns:cc="http://creativecommons.org/ns#" xmlns:svg="http://www.w3.org/2000/svg" xmlns:sodipodi="http://sodipodi.sourceforge.net/DTD/sodipodi-0.dtd" xmlns:rdf="http://www.w3.org/1999/02/22-rdf-syntax-ns#" xmlns:inkscape="http://www.inkscape.org/namespaces/inkscape"
	 xmlns="http://www.w3.org/2000/svg" xmlns:xlink="http://www.w3.org/1999/xlink" x="0px" y="0px" viewBox="-61.5 138 25 25"
	 style="enable-background:new -61.5 138 25 25;" xml:space="preserve">
<g transform="translate(0,-952.36218)">
	<path d="M-59.1,1090.4c-0.6,0-1.3,0.2-1.7,0.7c-1,1-1,2.5,0,3.5l8.3,8.3l-8.3,8.3c-1,1-1,2.5,0,3.5c1,1,2.5,1,3.5,0l8.3-8.3
		l8.3,8.3c1,1,2.5,1,3.5,0c1-1,1-2.5,0-3.5l-8.3-8.3l8.3-8.3c1-1,1-2.5,0-3.5c-1-1-2.5-1-3.5,0l-8.3,8.3l-8.3-8.3
		C-57.8,1090.6-58.4,1090.4-59.1,1090.4L-59.1,1090.4z"/>
</g>
</svg>
