<?xml version="1.0" encoding="utf-8"?>
<!-- Generator: Adobe Illustrator 19.0.0, SVG Export Plug-In . SVG Version: 6.00 Build 0)  -->
<svg version="1.1" id="Layer_1" xmlns="http://www.w3.org/2000/svg" xmlns:xlink="http://www.w3.org/1999/xlink" x="0px" y="0px"
	 viewBox="-62 138 25 25" style="enable-background:new -62 138 25 25;" xml:space="preserve">
<title>Artboard Copy 3</title>
<desc>Created with Sketch.</desc>
<g>
	<g>
		<path d="M-60.2,140.2h20.9c1,0,1.8,0.8,1.8,1.8l0,0c0,1-0.8,1.8-1.8,1.8h-20.9c-1,0-1.8-0.8-1.8-1.8l0,0
			C-62,141-61.2,140.2-60.2,140.2z"/>
		<path d="M-60.2,148.7h20.9c1,0,1.8,0.8,1.8,1.8l0,0c0,1-0.8,1.8-1.8,1.8h-20.9c-1,0-1.8-0.8-1.8-1.8l0,0
			C-62,149.5-61.2,148.7-60.2,148.7z"/>
		<path d="M-60.2,157.2h20.9c1,0,1.8,0.8,1.8,1.8l0,0c0,1-0.8,1.8-1.8,1.8h-20.9c-1,0-1.8-0.8-1.8-1.8l0,0
			C-62,158-61.2,157.2-60.2,157.2z"/>
	</g>
</g>
</svg>
