<?xml version="1.0" encoding="utf-8"?>
<!-- Generator: Adobe Illustrator 19.0.0, SVG Export Plug-In . SVG Version: 6.00 Build 0)  -->
<svg version="1.1" id="Layer_1" xmlns="http://www.w3.org/2000/svg" xmlns:xlink="http://www.w3.org/1999/xlink" x="0px" y="0px"
	 viewBox="-62.8 126.5 25 25" style="enable-background:new -62.8 126.5 25 25;" xml:space="preserve">
<g>
	<path d="M-44.8,143c1.6-1.7,2.5-3.9,2.5-6.4c0-5.2-4.2-9.5-9.4-9.5s-9.4,4.3-9.4,9.4c0,5.2,4.3,9.4,9.4,9.4c2,0,3.8-0.6,5.3-1.6
		l6.8,6.8c0.2,0.2,0.5,0.3,0.7,0.3c0.3,0,0.5-0.1,0.7-0.3c0.4-0.4,0.4-1.1,0-1.5L-44.8,143z M-51.6,144c-4,0-7.3-3.3-7.3-7.3
		c0-4,3.3-7.3,7.3-7.3s7.3,3.3,7.3,7.3C-44.3,140.6-47.6,144-51.6,144z"/>
</g>
</svg>
